<svg xmlns="http://www.w3.org/2000/svg" style="display: none;">
  <symbol id="architecture" viewBox="0 0 24 24">
    <path fill="currentColor" d="M6.36 18.78 6.61 21l1.62-1.54 2.77-7.6c-.68-.17-1.28-.51-1.77-.98l-2.87 7.9zm8.41-7.9c-.49.47-1.1.81-1.77.98l2.77 7.6L17.39 21l.26-2.22-2.88-7.9zM15 8c0-1.3-.84-2.4-2-2.82V3h-2v2.18C9.84 5.6 9 6.7 9 8c0 1.66 1.34 3 3 3s3-1.34 3-3zm-3 1c-.55 0-1-.45-1-1s.45-1 1-1 1 .45 1 1-.45 1-1 1z"/>
  </symbol>
  <symbol id="check_circle" viewBox="0 0 24 24">
    <path fill="currentColor" d="M12 2C6.48 2 2 6.48 2 12s4.48 10 10 10 10-4.48 10-10S17.52 2 12 2zm0 18c-4.41 0-8-3.59-8-8s3.59-8 8-8 8 3.59 8 8-3.59 8-8 8zm4.59-12.42L10 14.17l-2.59-2.58L6 13l4 4 8-8z"/>
  </symbol>
  <symbol id="close" viewBox="0 -960 960 960">
    <path fill="currentColor" d="m256-200-56-56 224-224-224-224 56-56 224 224 224-224 56 56-224 224 224 224-56 56-224-224-224 224Z"/>
  </symbol>
  <symbol id="construction" viewBox="0 0 24 24">
    <path fill="currentColor" d="m13.783 15.172 2.121-2.121 5.996 5.996-2.121 2.121zM17.5 10c1.93 0 3.5-1.57 3.5-3.5 0-.58-.16-1.12-.41-1.6l-2.7 2.7-1.49-1.49 2.7-2.7c-.48-.25-1.02-.41-1.6-.41C15.57 3 14 4.57 14 6.5c0 .41.08.8.21 1.16l-1.85 1.85-1.78-1.78.71-.71-1.41-1.41L12 3.49a3 3 0 0 0-4.24 0L4.22 7.03l1.41 1.41H2.81l-.71.71 3.54 3.54.71-.71V9.15l1.41 1.41.71-.71 1.78 1.78-7.41 7.41 2.12 2.12L16.34 9.79c.36.13.75.21 1.16.21z"/>
  </symbol>
  <symbol id="description" viewBox="0 0 24 24">
    <path fill="currentColor" d="M8 16h8v2H8zm0-4h8v2H8zm6-10H6c-1.1 0-2 .9-2 2v16c0 1.1.89 2 1.99 2H18c1.1 0 2-.9 2-2V8l-6-6zm4 18H6V4h7v5h5v11z"/>
  </symbol>
  <symbol id="fence" viewBox="0 0 24 24">
    <path fill="currentColor" d="M21 12v-2h-2V7l-3-3-2 2-2-2-2 2-2-2-3 3v3H3v2h2v2H3v2h2v4h14v-4h2v-2h-2v-2h2zm-5-5.17 1 1V10h-2V7.83l.41-.41.59-.59zm-4 0 .59.59.41.41V10h-2V7.83l.41-.41.59-.59zM11 14v-2h2v2h-2zm2 2v2h-2v-2h2zM7 7.83l1-1 .59.59.41.41V10H7V7.83zM7 12h2v2H7v-2zm0 4h2v2H7v-2zm10 2h-2v-2h2v2zm0-4h-2v-2h2v2z"/>
  </symbol>
  <symbol id="groups" viewBox="0 0 24 24">
    <path fill="currentColor" d="M4 13c1.1 0 2-.9 2-2s-.9-2-2-2-2 .9-2 2 .9 2 2 2zm1.13 1.1c-.37-.06-.74-.1-1.13-.1-.99 0-1.93.21-2.78.58A2.01 2.01 0 0 0 0 16.43V18h4.5v-1.61c0-.83.23-1.61.63-2.29zM20 13c1.1 0 2-.9 2-2s-.9-2-2-2-2 .9-2 2 .9 2 2 2zm4 3.43c0-.81-.48-1.53-1.22-1.85A6.95 6.95 0 0 0 20 14c-.39 0-.76.04-1.13.1.4.68.63 1.46.63 2.29V18H24v-1.57zm-7.76-2.78c-1.17-.52-2.61-.9-4.24-.9-1.63 0-3.07.39-4.24.9A2.988 2.988 0 0 0 6 16.39V18h12v-1.61c0-1.18-.68-2.26-1.76-2.74zM8.07 16c.09-.23.13-.39.91-.69.97-.38 1.99-.56 3.02-.56s2.05.18 3.02.56c.77.3.81.46.91.69H8.07zM12 8c.55 0 1 .45 1 1s-.45 1-1 1-1-.45-1-1 .45-1 1-1m0-2c-1.66 0-3 1.34-3 3s1.34 3 3 3 3-1.34 3-3-1.34-3-3-3z"/>
  </symbol>
  <symbol id="hardware" viewBox="0 0 24 24">
    <path fill="currentColor" d="m18 3-3 3V3H9C6.24 3 4 5.24 4 8h5v12c0 .55.45 1 1 1h4c.55 0 1-.45 1-1V8l3 3h2V3h-2zm-5 16h-2v-6h2v6zm-2-8V6H6.77C7.32 5.39 8.11 5 9 5h4v6h-2z"/>
  </symbol>
  <symbol id="mail" viewBox="0 0 24 24">
    <path fill="currentColor" d="M22 6c0-1.1-.9-2-2-2H4c-1.1 0-2 .9-2 2v12c0 1.1.9 2 2 2h16c1.1 0 2-.9 2-2V6zm-2 0-8 4.99L4 6h16zm0 12H4V8l8 5 8-5v10z"/>
  </symbol>
  <symbol id="menu" viewBox="0 0 24 24">
    <path fill="currentColor" d="M3 18h18v-2H3v2zm0-5h18v-2H3v2zm0-7v2h18V6H3z"/>
  </symbol>
  <symbol id="pool" viewBox="0 0 24 24">
    <path fill="currentColor" d="m10 8-3.25 3.25c.31.12.56.27.77.39.37.23.59.36 1.15.36s.78-.13 1.15-.36c.46-.27 1.08-.64 2.19-.64s1.73.37 2.18.64c.37.22.6.36 1.15.36.55 0 .78-.13 1.15-.36.12-.07.26-.15.41-.23L10.48 5C8.93 3.45 7.5 2.99 5 3v2.5c1.82-.01 2.89.39 4 1.5l1 1zm12 8.5h-.02.02zm-16.65-1c.55 0 .78.14 1.15.36.45.27 1.07.64 2.18.64s1.73-.37 2.18-.64c.37-.23.59-.36 1.15-.36.55 0 .78.14 1.15.36.45.27 1.07.64 2.18.64s1.73-.37 2.18-.64c.37-.23.59-.36 1.15-.36.55 0 .78.14 1.15.36.45.27 1.06.63 2.16.64v-2c-.55 0-.78-.14-1.15-.36-.45-.27-1.07-.64-2.18-.64s-1.73.37-2.18.64c-.37.23-.6.36-1.15.36s-.78-.14-1.15-.36c-.45-.27-1.07-.64-2.18-.64s-1.73.37-2.18.64c-.37.23-.59.36-1.15.36-.55 0-.78-.14-1.15-.36-.45-.27-1.07-.64-2.18-.64s-1.73.37-2.18.64c-.37.23-.59.36-1.15.36v2c1.11 0 1.73-.37 2.2-.64.37-.23.6-.36 1.15-.36zM18.67 18c-1.11 0-1.73.37-2.18.64-.37.23-.6.36-1.15.36-.55 0-.78-.14-1.15-.36-.45-.27-1.07-.64-2.18-.64s-1.73.37-2.19.64c-.37.23-.59.36-1.15.36s-.78-.13-1.15-.36c-.45-.27-1.07-.64-2.18-.64s-1.73.37-2.19.64c-.37.23-.59.36-1.15.36v2c1.11 0 1.73-.37 2.19-.64.37-.23.6-.36 1.15-.36.55 0 .78.13 1.15.36.45.27 1.07.64 2.18.64s1.73-.37 2.19-.64c.37-.23.59-.36 1.15-.36.55 0 .78.14 1.15.36.45.27 1.07.64 2.18.64s1.72-.37 2.18-.64c.37-.23.59-.36 1.15-.36.55 0 .78.14 1.15.36.45.27 1.07.64 2.18.64v-2c-.56 0-.78-.13-1.15-.36-.45-.27-1.07-.64-2.18-.64z"/><circle cx="16.5" cy="5.5" r="2.5"/>
  </symbol>
  <symbol id="precision_manufacturing" viewBox="0 0 24 24">
    <path fill="currentColor" d="m19.93 8.35-3.6 1.68L14 7.7V6.3l2.33-2.33 3.6 1.68c.38.18.82.01 1-.36.18-.38.01-.82-.36-1l-3.92-1.83a.993.993 0 0 0-1.13.2L13.78 4.4A.975.975 0 0 0 13 4c-.55 0-1 .45-1 1v1H8.82C8.4 4.84 7.3 4 6 4 4.34 4 3 5.34 3 7c0 1.1.6 2.05 1.48 2.58L7.08 18H6c-1.1 0-2 .9-2 2v1h13v-1c0-1.1-.9-2-2-2h-1.62L8.41 8.77c.17-.24.31-.49.41-.77H12v1c0 .55.45 1 1 1 .32 0 .6-.16.78-.4l1.74 1.74c.3.3.75.38 1.13.2l3.92-1.83c.38-.18.54-.62.36-1a.753.753 0 0 0-1-.36zM6 8c-.55 0-1-.45-1-1s.45-1 1-1 1 .45 1 1-.45 1-1 1zm5.11 10H9.17l-2.46-8h.1l4.3 8z"/>
  </symbol>
  <symbol id="request_quote" viewBox="0 0 24 24">
    <path fill="currentColor" d="M14 2H6c-1.1 0-2 .9-2 2v16c0 1.1.9 2 2 2h12c1.1 0 2-.9 2-2V8l-6-6zM6 20V4h7v4h5v12H6zm5-1h2v-1h1c.55 0 1-.45 1-1v-3c0-.55-.45-1-1-1h-3v-1h4v-2h-2V9h-2v1h-1c-.55 0-1 .45-1 1v3c0 .55.45 1 1 1h3v1H9v2h2v1z"/>
  </symbol>
  <symbol id="share" viewBox="0 0 24 24">
    <path fill="currentColor" d="M18 16.08c-.76 0-1.44.3-1.96.77L8.91 12.7c.05-.23.09-.46.09-.7s-.04-.47-.09-.7l7.05-4.11c.54.5 1.25.81 2.04.81 1.66 0 3-1.34 3-3s-1.34-3-3-3-3 1.34-3 3c0 .24.04.47.09.7L8.04 9.81C7.5 9.31 6.79 9 6 9c-1.66 0-3 1.34-3 3s1.34 3 3 3c.79 0 1.5-.31 2.04-.81l7.12 4.16c-.05.21-.08.43-.08.65 0 1.61 1.31 2.92 2.92 2.92s2.92-1.31 2.92-2.92c0-1.61-1.31-2.92-2.92-2.92zM18 4c.55 0 1 .45 1 1s-.45 1-1 1-1-.45-1-1 .45-1 1-1zM6 13c-.55 0-1-.45-1-1s.45-1 1-1 1 .45 1 1-.45 1-1 1zm12 7.02c-.55 0-1-.45-1-1s.45-1 1-1 1 .45 1 1-.45 1-1 1z"/>
  </symbol>
  <symbol id="star" viewBox="0 0 24 24">
    <path fill="currentColor" d="M12 17.27 18.18 21l-1.64-7.03L22 9.24l-7.19-.61L12 2 9.19 8.63 2 9.24l5.46 4.73L5.82 21 12 17.27z"/>
  </symbol>
</svg>